<svg version="1.1" xmlns="http://www.w3.org/2000/svg" viewBox="0 0 970 2265" width="970" height="2265">
  <!-- svg-source:excalidraw -->
  
  <defs>
    <style class="style-fonts">
      @font-face {
        font-family: "Virgil";
        src: url("https://excalidraw.com/Virgil.woff2");
      }
      @font-face {
        font-family: "Cascadia";
        src: url("https://excalidraw.com/Cascadia.woff2");
      }
      @font-face {
        font-family: "Assistant";
        src: url("https://excalidraw.com/Assistant-Regular.woff2");
      }
    </style>
    
  </defs>
  <rect x="0" y="0" width="970" height="2265" fill="#ffffff"></rect><g stroke-linecap="round" transform="translate(203 10) rotate(0 126.5 23.5)"><path d="M11.75 0 C93.24 1.92, 172.06 -0.12, 241.25 0 M11.75 0 C82.42 -0.42, 153.09 -0.52, 241.25 0 M241.25 0 C250.05 -0.73, 253.22 4.73, 253 11.75 M241.25 0 C249.32 0.61, 254.45 6.14, 253 11.75 M253 11.75 C252.1 18.14, 251.9 22.82, 253 35.25 M253 11.75 C253.84 18.09, 252.91 23, 253 35.25 M253 35.25 C254.84 43.66, 248.16 45.16, 241.25 47 M253 35.25 C252.2 45.13, 249.88 49.24, 241.25 47 M241.25 47 C169.21 46.45, 96.1 46.53, 11.75 47 M241.25 47 C194.2 46.65, 146.88 46.72, 11.75 47 M11.75 47 C2.28 47.38, -1.83 43.71, 0 35.25 M11.75 47 C5.62 44.83, -1.03 42.62, 0 35.25 M0 35.25 C-1.52 27.89, -0.08 19.81, 0 11.75 M0 35.25 C-0.32 28.06, -0.8 20.94, 0 11.75 M0 11.75 C0.44 5.24, 3.72 0.32, 11.75 0 M0 11.75 C-0.28 4.88, 2.13 -0.99, 11.75 0" stroke="#1e1e1e" stroke-width="2" fill="none"></path></g><g stroke-linecap="round" transform="translate(234 107) rotate(0 95.5 23.5)"><path d="M11.75 0 C49.55 -2.29, 90.25 -0.72, 179.25 0 M11.75 0 C70.87 -0.61, 130.47 -1.58, 179.25 0 M179.25 0 C187.3 0.81, 191.21 4.45, 191 11.75 M179.25 0 C188.53 2.22, 189.02 4.5, 191 11.75 M191 11.75 C189.73 21.61, 189.87 30.73, 191 35.25 M191 11.75 C190.92 17.83, 192.08 25.12, 191 35.25 M191 35.25 C190.08 41.24, 186.39 48.78, 179.25 47 M191 35.25 C191.8 45.32, 187.4 48.05, 179.25 47 M179.25 47 C138.78 48.7, 99.07 46.6, 11.75 47 M179.25 47 C128.19 45.38, 74.68 46.12, 11.75 47 M11.75 47 C2.08 47.62, 1.48 41.2, 0 35.25 M11.75 47 C2.89 46.54, 1.08 42.33, 0 35.25 M0 35.25 C0.03 28.22, 0.2 18.21, 0 11.75 M0 35.25 C-0.84 28.29, 0.33 22.37, 0 11.75 M0 11.75 C-0.19 4.24, 3.67 0.84, 11.75 0 M0 11.75 C-1.79 2.92, 5.51 -1.44, 11.75 0" stroke="#1e1e1e" stroke-width="2" fill="none"></path></g><g stroke-linecap="round" transform="translate(235.5 204) rotate(0 94 23.5)"><path d="M11.75 0 C67.38 1.27, 123.75 1.36, 176.25 0 M11.75 0 C73.49 -1.36, 134.37 -0.59, 176.25 0 M176.25 0 C184.29 0.53, 189.26 5.85, 188 11.75 M176.25 0 C182.1 0.58, 189.75 2.82, 188 11.75 M188 11.75 C186.85 21.7, 187.43 30.43, 188 35.25 M188 11.75 C188.86 20.22, 187.48 27.2, 188 35.25 M188 35.25 C187.31 44.86, 184.78 48.94, 176.25 47 M188 35.25 C188.32 44.13, 182.56 46.97, 176.25 47 M176.25 47 C117.82 46.66, 63.3 48.92, 11.75 47 M176.25 47 C136.56 46.28, 97.59 46.4, 11.75 47 M11.75 47 C5.4 45.12, -0.89 42.68, 0 35.25 M11.75 47 C4.99 46.25, 0.82 41.25, 0 35.25 M0 35.25 C0.03 26.01, -0.22 18.36, 0 11.75 M0 35.25 C0.44 29.16, 0.13 21.91, 0 11.75 M0 11.75 C-0.25 4.75, 2.36 -0.86, 11.75 0 M0 11.75 C1.59 2.48, 1.84 1.98, 11.75 0" stroke="#1e1e1e" stroke-width="2" fill="none"></path></g><g stroke-linecap="round" transform="translate(287 301) rotate(0 42.5 23.5)"><path d="M11.75 0 C26.14 0.02, 39.87 0.05, 73.25 0 M11.75 0 C34.04 0.63, 56.22 0.49, 73.25 0 M73.25 0 C82.34 1.93, 83.28 4.42, 85 11.75 M73.25 0 C82.84 -1.1, 86.57 2.59, 85 11.75 M85 11.75 C84.45 21.37, 85.85 27.76, 85 35.25 M85 11.75 C84.76 16.8, 84.87 24.58, 85 35.25 M85 35.25 C85.7 45.03, 81.36 47.91, 73.25 47 M85 35.25 C83.48 43.05, 82.09 45.49, 73.25 47 M73.25 47 C52.03 47.78, 29.15 48.28, 11.75 47 M73.25 47 C57.29 47.43, 43.9 46.17, 11.75 47 M11.75 47 C3.03 46.6, 0.94 42.43, 0 35.25 M11.75 47 C4.74 45.17, 0.91 42.91, 0 35.25 M0 35.25 C-0.24 26.25, -0.26 17.22, 0 11.75 M0 35.25 C-0.15 28.81, -0.17 22.47, 0 11.75 M0 11.75 C-1.56 3.05, 5.3 -1.25, 11.75 0 M0 11.75 C-2.08 5.9, 3.16 -0.12, 11.75 0" stroke="#1e1e1e" stroke-width="2" fill="none"></path></g><g stroke-linecap="round" transform="translate(222.5 398) rotate(0 107 23.5)"><path d="M11.75 0 C69.42 0.02, 125.41 0.98, 202.25 0 M11.75 0 C62.07 -0.5, 112.82 0.2, 202.25 0 M202.25 0 C208.36 0.51, 215.52 2.96, 214 11.75 M202.25 0 C211.65 -1.33, 215.17 2.75, 214 11.75 M214 11.75 C214.92 19.84, 213.03 30.74, 214 35.25 M214 11.75 C213.55 20.37, 214.24 28.18, 214 35.25 M214 35.25 C214.28 44, 208.76 46.97, 202.25 47 M214 35.25 C215.01 41.57, 211.19 44.86, 202.25 47 M202.25 47 C154.6 49.7, 108.4 46.44, 11.75 47 M202.25 47 C142.27 46.65, 80.36 47.39, 11.75 47 M11.75 47 C4.85 46.35, 0.71 41.49, 0 35.25 M11.75 47 C4.82 46.82, 0.99 43.09, 0 35.25 M0 35.25 C-0.23 27.78, -0.35 24.56, 0 11.75 M0 35.25 C-0.1 27.06, -0.76 17.61, 0 11.75 M0 11.75 C1.38 2.67, 2.11 1.73, 11.75 0 M0 11.75 C-0.76 3.79, 4.93 -2.18, 11.75 0" stroke="#1e1e1e" stroke-width="2" fill="none"></path></g><g stroke-linecap="round" transform="translate(155 495) rotate(0 174.5 174.5)"><path d="M175 0 C229.2 53.24, 279.76 105.08, 349 175 M175 0 C234.9 59.99, 292.92 118.98, 349 175 M349 175 C281.91 242.27, 216.56 307.96, 175 349 M349 175 C301.35 223.75, 253.87 272.8, 175 349 M175 349 C133.32 304.87, 88.99 260.31, 0 175 M175 349 C115.82 288.3, 55.37 227.93, 0 175 M0 175 C41.41 132.93, 84.15 87.65, 175 0 M0 175 C57.71 118, 112.52 62.82, 175 0" stroke="#1e1e1e" stroke-width="2" fill="none"></path></g><g stroke-linecap="round" transform="translate(162 894) rotate(0 167.5 23.5)"><path d="M11.75 0 C104.93 -0.93, 199.74 -0.93, 323.25 0 M11.75 0 C112.9 -1.97, 215.83 -2.49, 323.25 0 M323.25 0 C332.45 -1.16, 336.02 2.9, 335 11.75 M323.25 0 C332.58 -0.5, 336.58 5.03, 335 11.75 M335 11.75 C335.47 17.31, 333.05 24.01, 335 35.25 M335 11.75 C335.22 21.35, 334.42 30.02, 335 35.25 M335 35.25 C335.88 41.77, 332.05 45.14, 323.25 47 M335 35.25 C333.7 43.31, 332.38 45.53, 323.25 47 M323.25 47 C204.69 43.87, 86.05 46.24, 11.75 47 M323.25 47 C259.49 46.32, 195.31 45.98, 11.75 47 M11.75 47 C4.71 46.85, 0.86 43.09, 0 35.25 M11.75 47 C2.46 46.72, -1.08 42.79, 0 35.25 M0 35.25 C1.37 30.25, 0.36 25.38, 0 11.75 M0 35.25 C0.88 26.59, -0.72 20.04, 0 11.75 M0 11.75 C-0.66 3.81, 4.8 -1.89, 11.75 0 M0 11.75 C1.43 5.63, 6.16 -1.51, 11.75 0" stroke="#1e1e1e" stroke-width="2" fill="none"></path></g><g stroke-linecap="round" transform="translate(40 991) rotate(0 56.5 23.5)"><path d="M11.75 0 C43.76 0.11, 74.68 1.16, 101.25 0 M11.75 0 C48 -0.71, 83.42 -0.81, 101.25 0 M101.25 0 C110.1 -1.02, 114.3 3.48, 113 11.75 M101.25 0 C110.66 1.11, 112.44 2.86, 113 11.75 M113 11.75 C111.22 20.27, 114.85 30.87, 113 35.25 M113 11.75 C112.37 21.07, 113.47 29.76, 113 35.25 M113 35.25 C113.96 41.23, 107.95 47.19, 101.25 47 M113 35.25 C114.3 41.62, 110.96 45.73, 101.25 47 M101.25 47 C82.36 47.66, 60.33 45.29, 11.75 47 M101.25 47 C76.55 45.91, 51.54 46.63, 11.75 47 M11.75 47 C4.78 47.01, -1.26 42.84, 0 35.25 M11.75 47 C2.84 46.7, -2.19 42.64, 0 35.25 M0 35.25 C0.16 27.44, 0.68 18.56, 0 11.75 M0 35.25 C-1.07 30.08, -0.49 23.12, 0 11.75 M0 11.75 C0.88 2.02, 5.16 1.49, 11.75 0 M0 11.75 C2.24 2.4, 4.33 1.28, 11.75 0" stroke="#1e1e1e" stroke-width="2" fill="none"></path></g><g stroke-linecap="round" transform="translate(263 991) rotate(0 66.5 23.5)"><path d="M11.75 0 C46.32 1.14, 81.75 -1.84, 121.25 0 M11.75 0 C48.06 -0.05, 83.52 0.02, 121.25 0 M121.25 0 C130.38 -0.43, 134.37 4.88, 133 11.75 M121.25 0 C128.52 -1.06, 135.12 4.58, 133 11.75 M133 11.75 C134.56 18.42, 134.73 23.97, 133 35.25 M133 11.75 C133.28 19.22, 133.33 27.07, 133 35.25 M133 35.25 C131.87 43.28, 130.21 45.73, 121.25 47 M133 35.25 C134.87 41.81, 127.2 47.43, 121.25 47 M121.25 47 C96.56 46.92, 75.24 48.75, 11.75 47 M121.25 47 C92.37 46.05, 63.13 46.13, 11.75 47 M11.75 47 C2.65 46.76, -0.94 42.83, 0 35.25 M11.75 47 C1.72 46.56, 0.51 44.61, 0 35.25 M0 35.25 C0.8 26.87, -0.9 22.99, 0 11.75 M0 35.25 C-0.12 29.62, 0.65 23.14, 0 11.75 M0 11.75 C1.25 5.4, 5.86 -1.32, 11.75 0 M0 11.75 C0.42 5.2, 2.15 -2.04, 11.75 0" stroke="#1e1e1e" stroke-width="2" fill="none"></path></g><g stroke-linecap="round" transform="translate(629.5 991) rotate(0 51 23.5)"><path d="M11.75 0 C38.05 -2.22, 61 1.03, 90.25 0 M11.75 0 C32.06 -0.05, 51.99 0.24, 90.25 0 M90.25 0 C99.46 0.97, 101.51 3, 102 11.75 M90.25 0 C100.2 0.66, 100.94 1.79, 102 11.75 M102 11.75 C104.15 18.26, 103.12 22.9, 102 35.25 M102 11.75 C102.59 17.84, 101.54 25.88, 102 35.25 M102 35.25 C103.13 41.81, 99.71 45.89, 90.25 47 M102 35.25 C100.12 43.51, 95.97 47.72, 90.25 47 M90.25 47 C60.48 47.59, 30.85 47.36, 11.75 47 M90.25 47 C73.39 46.94, 55.03 46.82, 11.75 47 M11.75 47 C2.98 46.74, -1.91 42.7, 0 35.25 M11.75 47 C4.42 48.52, -0.22 43.45, 0 35.25 M0 35.25 C-0.96 29.87, -1.35 19.92, 0 11.75 M0 35.25 C0.52 25.23, 0.7 17.84, 0 11.75 M0 11.75 C1.95 2.6, 4.28 1.11, 11.75 0 M0 11.75 C-1.77 1.88, 3.42 0.85, 11.75 0" stroke="#1e1e1e" stroke-width="2" fill="none"></path></g><g stroke-linecap="round" transform="translate(10 1088) rotate(0 86.5 23.5)"><path d="M11.75 0 C66.52 2.81, 119.31 2.65, 161.25 0 M11.75 0 C48.6 0.54, 84.85 1.24, 161.25 0 M161.25 0 C168.6 -0.92, 174.84 4.49, 173 11.75 M161.25 0 C168.03 -2.12, 172.2 5.96, 173 11.75 M173 11.75 C174.14 18.29, 173.2 28.36, 173 35.25 M173 11.75 C172.55 17.36, 173.68 22.13, 173 35.25 M173 35.25 C174.63 41.98, 167.44 47.38, 161.25 47 M173 35.25 C170.89 43.8, 170.79 44.83, 161.25 47 M161.25 47 C122.41 48.41, 83.28 48.49, 11.75 47 M161.25 47 C116.93 46.89, 73.4 46.88, 11.75 47 M11.75 47 C2.01 46.62, 0.44 44.41, 0 35.25 M11.75 47 C3.69 47.37, -0.28 44.05, 0 35.25 M0 35.25 C-1.15 28.23, 1.83 24.15, 0 11.75 M0 35.25 C0.52 29.07, 0.87 20.74, 0 11.75 M0 11.75 C0.36 5.03, 2.38 -1.77, 11.75 0 M0 11.75 C-0.5 4.77, 5.2 -0.12, 11.75 0" stroke="#1e1e1e" stroke-width="2" fill="none"></path></g><g stroke-linecap="round" transform="translate(233 1088) rotate(0 96.5 23.5)"><path d="M11.75 0 C47.03 0.07, 83.07 -0.27, 181.25 0 M11.75 0 C54.68 0.85, 96 -0.09, 181.25 0 M181.25 0 C190.92 0.58, 192.08 2.07, 193 11.75 M181.25 0 C188.29 2.05, 193.8 6.15, 193 11.75 M193 11.75 C193.08 20, 191.8 27.46, 193 35.25 M193 11.75 C193.43 15.98, 193.68 20.93, 193 35.25 M193 35.25 C191.36 43.46, 187.25 47.62, 181.25 47 M193 35.25 C194.71 40.92, 188.06 46.54, 181.25 47 M181.25 47 C120.87 48.39, 63.52 48.47, 11.75 47 M181.25 47 C129.86 46.67, 78.47 46.61, 11.75 47 M11.75 47 C4.36 48.32, -0.19 43.4, 0 35.25 M11.75 47 C3.63 47.96, -1.79 42.09, 0 35.25 M0 35.25 C1.87 25.91, 0.04 18.78, 0 11.75 M0 35.25 C0.83 29.77, 0.03 26.16, 0 11.75 M0 11.75 C-1.54 2.15, 3.49 0.74, 11.75 0 M0 11.75 C1.28 3.8, 3.19 -1.49, 11.75 0" stroke="#1e1e1e" stroke-width="2" fill="none"></path></g><g stroke-linecap="round" transform="translate(476 1088) rotate(0 49 23.5)"><path d="M11.75 0 C38.62 0.51, 66.79 0.79, 86.25 0 M11.75 0 C32.25 -0.82, 54.15 -0.07, 86.25 0 M86.25 0 C93.16 -1.84, 97.31 5.7, 98 11.75 M86.25 0 C94.88 2.24, 98.32 4.97, 98 11.75 M98 11.75 C96.69 18.21, 96.14 21.61, 98 35.25 M98 11.75 C98.95 18.47, 97.31 26.49, 98 35.25 M98 35.25 C96.17 43.71, 95.57 45.12, 86.25 47 M98 35.25 C96.97 42.62, 95.16 46.25, 86.25 47 M86.25 47 C61.08 48.16, 36.24 46.03, 11.75 47 M86.25 47 C63.84 46.71, 43.56 47.57, 11.75 47 M11.75 47 C3.72 47.32, -0.25 43.92, 0 35.25 M11.75 47 C2.13 46.01, 1.59 41.64, 0 35.25 M0 35.25 C-0.31 31.2, -2.1 26.64, 0 11.75 M0 35.25 C-0.05 27.01, -1 16.77, 0 11.75 M0 11.75 C-0.43 4.66, 5.03 -0.11, 11.75 0 M0 11.75 C-0.72 2.43, 1.87 -0.91, 11.75 0" stroke="#1e1e1e" stroke-width="2" fill="none"></path></g><g stroke-linecap="round" transform="translate(702.75 1088) rotate(0 54.5 23.5)"><path d="M11.75 0 C42.22 0.86, 74.3 0.94, 97.25 0 M11.75 0 C42.45 0.68, 70.85 -0.53, 97.25 0 M97.25 0 C104.39 1.78, 109.7 5.86, 109 11.75 M97.25 0 C105.4 1.05, 107.48 3.89, 109 11.75 M109 11.75 C106.99 18.7, 109.04 29.04, 109 35.25 M109 11.75 C108.37 17.49, 108.27 23.17, 109 35.25 M109 35.25 C110.48 41.2, 104.19 46.6, 97.25 47 M109 35.25 C110.08 42.33, 105.9 45.17, 97.25 47 M97.25 47 C68.23 46.1, 38.96 46.43, 11.75 47 M97.25 47 C72.92 47.5, 48.05 47, 11.75 47 M11.75 47 C3.67 47.84, -1.56 42.22, 0 35.25 M11.75 47 C5.51 45.56, -2.08 45.07, 0 35.25 M0 35.25 C-1.88 30.22, 1.5 24.65, 0 11.75 M0 35.25 C-0.81 28.86, -0.26 24.62, 0 11.75 M0 11.75 C1.11 3.81, 3.29 -1.3, 11.75 0 M0 11.75 C-2.04 3, 6.1 1.97, 11.75 0" stroke="#1e1e1e" stroke-width="2" fill="none"></path></g><g stroke-linecap="round" transform="translate(407.5 1185) rotate(0 117.5 23.5)"><path d="M11.75 0 C85.59 0, 161.03 -1.64, 223.25 0 M11.75 0 C65.06 -1.35, 118.88 0.25, 223.25 0 M223.25 0 C231.78 1.94, 235.28 4.83, 235 11.75 M223.25 0 C229.56 -0.03, 236.01 2.41, 235 11.75 M235 11.75 C234.98 21.06, 233.51 29.74, 235 35.25 M235 11.75 C233.89 17.81, 235.55 22.31, 235 35.25 M235 35.25 C234.11 42.68, 232.02 46.35, 223.25 47 M235 35.25 C235.82 41.25, 231.99 46.82, 223.25 47 M223.25 47 C150.46 45, 77.87 44.14, 11.75 47 M223.25 47 C163.75 48.37, 104.32 48.6, 11.75 47 M11.75 47 C2.36 46.14, 1.38 41.83, 0 35.25 M11.75 47 C1.84 48.98, -0.76 42.96, 0 35.25 M0 35.25 C1.71 29.11, -1.09 19.44, 0 11.75 M0 35.25 C-0.03 27.26, 0.74 18.48, 0 11.75 M0 11.75 C-0.63 2.62, 2.14 -0.79, 11.75 0 M0 11.75 C2.19 5.89, 3.61 0.07, 11.75 0" stroke="#1e1e1e" stroke-width="2" fill="none"></path></g><g stroke-linecap="round" transform="translate(713 1185) rotate(0 123.5 23.5)"><path d="M11.75 0 C94.13 -1.74, 174.05 0.27, 235.25 0 M11.75 0 C84.96 2.54, 159.06 2.61, 235.25 0 M235.25 0 C243.36 0.91, 245.68 3.89, 247 11.75 M235.25 0 C244.09 -1.51, 248.11 1.78, 247 11.75 M247 11.75 C245.75 19.1, 245.92 21.55, 247 35.25 M247 11.75 C247.53 18.3, 246.34 26.53, 247 35.25 M247 35.25 C247.94 42.43, 243.8 45.41, 235.25 47 M247 35.25 C247.91 42.91, 244.08 47.01, 235.25 47 M235.25 47 C182.1 44.46, 129.07 46.48, 11.75 47 M235.25 47 C153.31 47.67, 70.9 46.94, 11.75 47 M11.75 47 C5.3 45.75, -1.81 44.81, 0 35.25 M11.75 47 C3.16 46.88, 1.01 40.91, 0 35.25 M0 35.25 C-1.49 27.1, 0.94 16.68, 0 11.75 M0 35.25 C0.61 30.23, -0.26 24.66, 0 11.75 M0 11.75 C-1.78 3.12, 5.82 1.71, 11.75 0 M0 11.75 C-0.3 3.99, 2.67 0.99, 11.75 0" stroke="#1e1e1e" stroke-width="2" fill="none"></path></g><g stroke-linecap="round" transform="translate(626.25 1282) rotate(0 131 131)"><path d="M132 0 C179.64 50.81, 229.05 96.71, 262 132 M132 0 C158.9 27.24, 185.7 54.15, 262 132 M262 132 C230.28 163.93, 199.34 192.23, 132 262 M262 132 C223.29 170.88, 181.39 211.88, 132 262 M132 262 C102.22 235.01, 76.21 209.76, 0 132 M132 262 C96.64 226.12, 61.39 191.44, 0 132 M0 132 C31.16 99.46, 62.29 70.54, 132 0 M0 132 C48.34 83.87, 96.02 34.69, 132 0" stroke="#1e1e1e" stroke-width="2" fill="none"></path></g><g stroke-linecap="round" transform="translate(734.25 1626) rotate(0 102 23.5)"><path d="M11.75 0 C62.08 -2.58, 109.41 -2.35, 192.25 0 M11.75 0 C82.11 -1.3, 151.52 -1.77, 192.25 0 M192.25 0 C200.96 -1.31, 204.96 2.06, 204 11.75 M192.25 0 C198.78 0.22, 205.3 2.45, 204 11.75 M204 11.75 C204.25 18.88, 204.49 31.16, 204 35.25 M204 11.75 C204.36 16.26, 204.25 20.62, 204 35.25 M204 35.25 C204.79 42.93, 200.95 47.01, 192.25 47 M204 35.25 C202.55 42.81, 199 46.7, 192.25 47 M192.25 47 C156.63 47.2, 118.68 47.15, 11.75 47 M192.25 47 C131.23 45.6, 67.93 47.08, 11.75 47 M11.75 47 C3.26 46.89, 0.88 41.19, 0 35.25 M11.75 47 C5.35 48.71, 2.24 41.57, 0 35.25 M0 35.25 C-1.9 27.34, 0.61 21.41, 0 11.75 M0 35.25 C-0.81 27.93, 1.02 22.26, 0 11.75 M0 11.75 C-0.26 3.98, 2.83 0.86, 11.75 0 M0 11.75 C1.4 2.47, 3.68 -0.45, 11.75 0" stroke="#1e1e1e" stroke-width="2" fill="none"></path></g><g stroke-linecap="round" transform="translate(668.75 1723) rotate(0 88.5 23.5)"><path d="M11.75 0 C70.09 0.01, 133.9 1.4, 165.25 0 M11.75 0 C72.06 -0.71, 134.14 -1.36, 165.25 0 M165.25 0 C174.05 -1.86, 175.87 4.11, 177 11.75 M165.25 0 C174.38 -1.47, 178.87 2.64, 177 11.75 M177 11.75 C177.67 18.36, 175.16 21.11, 177 35.25 M177 11.75 C177.47 17.53, 177.5 24.83, 177 35.25 M177 35.25 C177.86 43.09, 171.82 46.76, 165.25 47 M177 35.25 C175.92 42.79, 170.89 46.56, 165.25 47 M165.25 47 C116.15 46.61, 67.24 45.29, 11.75 47 M165.25 47 C124.92 46.9, 86.06 45.99, 11.75 47 M11.75 47 C4.8 45.11, 1.25 44.57, 0 35.25 M11.75 47 C6.16 45.49, 0.42 44.37, 0 35.25 M0 35.25 C0.95 31.12, 0.1 24.14, 0 11.75 M0 35.25 C1.16 30.58, 0.08 24.23, 0 11.75 M0 11.75 C-1.09 4.78, 5.14 -1.26, 11.75 0 M0 11.75 C-0.24 3.47, 3.76 -0.12, 11.75 0" stroke="#1e1e1e" stroke-width="2" fill="none"></path></g><g stroke-linecap="round" transform="translate(724.75 1820) rotate(0 32.5 23.5)"><path d="M11.75 0 C24.07 0.84, 34.78 0.42, 53.25 0 M11.75 0 C26.53 -0.65, 40.92 -0.92, 53.25 0 M53.25 0 C59.95 0.19, 66.13 2.64, 65 11.75 M53.25 0 C62.96 -1.27, 63.12 4.35, 65 11.75 M65 11.75 C63.19 15.75, 64.67 22.48, 65 35.25 M65 11.75 C65.48 17.96, 65.52 24.32, 65 35.25 M65 35.25 C63.74 42.84, 60.14 46.74, 53.25 47 M65 35.25 C62.81 42.64, 61.59 48.52, 53.25 47 M53.25 47 C42.04 45.39, 28.29 48.33, 11.75 47 M53.25 47 C43.07 47.31, 33.98 46.41, 11.75 47 M11.75 47 C5.16 48.49, 1.95 41.77, 0 35.25 M11.75 47 C4.33 48.28, -1.77 41.05, 0 35.25 M0 35.25 C-0.19 28.08, -1.38 20.39, 0 11.75 M0 35.25 C-0.35 29.16, -0.77 23.45, 0 11.75 M0 11.75 C1.22 2.66, 3.71 -0.39, 11.75 0 M0 11.75 C-0.15 3.79, 3.38 2.06, 11.75 0" stroke="#1e1e1e" stroke-width="2" fill="none"></path></g><g stroke-linecap="round" transform="translate(568.75 1917) rotate(0 188.5 23.5)"><path d="M11.75 0 C106.82 -0.62, 199.97 -1.65, 365.25 0 M11.75 0 C117.64 0.9, 222.55 1.56, 365.25 0 M365.25 0 C374.21 -1.27, 378.63 2.81, 377 11.75 M365.25 0 C371.2 0.43, 374.89 4.63, 377 11.75 M377 11.75 C376.38 21.48, 376.13 30.05, 377 35.25 M377 11.75 C377.52 16.93, 376.46 21.98, 377 35.25 M377 35.25 C376.06 42.83, 371.18 46.62, 365.25 47 M377 35.25 C377.51 44.61, 372.86 47.37, 365.25 47 M365.25 47 C263 46.12, 161.05 44.06, 11.75 47 M365.25 47 C228.99 46.27, 92.57 47.36, 11.75 47 M11.75 47 C5.86 45.68, 0.36 44.2, 0 35.25 M11.75 47 C2.15 44.96, -0.5 43.94, 0 35.25 M0 35.25 C-1.28 25.12, -0.78 20.44, 0 11.75 M0 35.25 C-0.51 26.62, 0.64 16.49, 0 11.75 M0 11.75 C-0.21 3.53, 3.78 -0.11, 11.75 0 M0 11.75 C-0.53 5.98, 2.19 0.62, 11.75 0" stroke="#1e1e1e" stroke-width="2" fill="none"></path></g><g stroke-linecap="round" transform="translate(713.25 2014) rotate(0 44 23.5)"><path d="M11.75 0 C34.26 -1.41, 54.92 0.79, 76.25 0 M11.75 0 C26.3 0.7, 42.55 -0.04, 76.25 0 M76.25 0 C85.71 -1.11, 86.36 4.29, 88 11.75 M76.25 0 C81.97 0.72, 89.71 1.75, 88 11.75 M88 11.75 C87.3 18.47, 86.36 24.54, 88 35.25 M88 11.75 C87.47 18.5, 87.63 25.36, 88 35.25 M88 35.25 C86.09 42.7, 84.52 48.32, 76.25 47 M88 35.25 C87.78 43.45, 83.8 47.96, 76.25 47 M76.25 47 C60.67 45.64, 49.32 46.78, 11.75 47 M76.25 47 C57.86 47.13, 39.21 45.73, 11.75 47 M11.75 47 C4.28 48.11, -1.54 41.31, 0 35.25 M11.75 47 C3.42 47.85, 1.28 42.96, 0 35.25 M0 35.25 C-0.64 30.84, 1.87 22.36, 0 11.75 M0 35.25 C0.74 27.5, 0.02 20.81, 0 11.75 M0 11.75 C-0.13 3.81, 3.45 1.8, 11.75 0 M0 11.75 C-1.73 4.54, 2.52 -0.42, 11.75 0" stroke="#1e1e1e" stroke-width="2" fill="none"></path></g><g stroke-linecap="round" transform="translate(619.25 2111) rotate(0 138 23.5)"><path d="M11.75 0 C90.96 2.07, 169.16 2.14, 264.25 0 M11.75 0 C64.5 -0.72, 117 -0.65, 264.25 0 M264.25 0 C270.44 0.38, 274.17 4.54, 276 11.75 M264.25 0 C273.79 -2.17, 274.97 3.46, 276 11.75 M276 11.75 C274.33 20.69, 275.77 28.91, 276 35.25 M276 11.75 C275.38 18.68, 274.9 25.68, 276 35.25 M276 35.25 C276.44 44.41, 271.89 47.32, 264.25 47 M276 35.25 C275.72 44.05, 270.29 46.01, 264.25 47 M264.25 47 C172.42 44.61, 77.7 45.87, 11.75 47 M264.25 47 C213.2 47.99, 160.7 48.98, 11.75 47 M11.75 47 C2.38 45.23, -0.43 43.82, 0 35.25 M11.75 47 C5.2 46.88, -0.72 41.59, 0 35.25 M0 35.25 C1.81 30.02, 0.16 24.24, 0 11.75 M0 35.25 C-0.25 26.99, -0.21 19.07, 0 11.75 M0 11.75 C-0.46 5.71, 2.41 0.54, 11.75 0 M0 11.75 C-1.4 3.49, 5.7 -2.2, 11.75 0" stroke="#1e1e1e" stroke-width="2" fill="none"></path></g><g stroke-linecap="round" transform="translate(684.75 2208) rotate(0 72.5 23.5)"><path d="M11.75 0 C38.85 0.43, 66.71 -1.66, 133.25 0 M11.75 0 C50.19 0.22, 86.19 0.96, 133.25 0 M133.25 0 C139.25 0.62, 146.48 2.03, 145 11.75 M133.25 0 C140.06 -0.46, 146.08 3.17, 145 11.75 M145 11.75 C144.66 20.5, 144.82 26.26, 145 35.25 M145 11.75 C143.94 18.33, 145.11 25.95, 145 35.25 M145 35.25 C144.81 43.4, 140.84 47.84, 133.25 47 M145 35.25 C143.21 42.09, 142.68 45.56, 133.25 47 M133.25 47 C107.66 47.48, 80.39 47.84, 11.75 47 M133.25 47 C87.95 46.76, 41.51 45.31, 11.75 47 M11.75 47 C3.49 47.74, 1.11 42.98, 0 35.25 M11.75 47 C3.19 45.51, -2.04 42.17, 0 35.25 M0 35.25 C-0.14 24.88, 0.66 17.9, 0 11.75 M0 35.25 C-0.04 29.62, -0.21 25, 0 11.75 M0 11.75 C-1.51 4.46, 2.7 -0.37, 11.75 0 M0 11.75 C1.78 1.72, 3.67 1.96, 11.75 0" stroke="#1e1e1e" stroke-width="2" fill="none"></path></g><g stroke-linecap="round"><g transform="translate(329.5 57.5) rotate(0 0 24.5)"><path d="M0.58 -1.11 C0.38 7.2, -0.7 40.89, -0.68 49.12 M-0.58 0.91 C-0.43 9.52, 1.54 42.68, 1.68 50.71" stroke="#1e1e1e" stroke-width="2" fill="none"></path></g><g transform="translate(329.5 57.5) rotate(0 0 24.5)"><path d="M-7.64 28.06 C-6.44 34.67, -1.19 44.72, 1.68 50.71 M-7.64 28.06 C-6.07 33.65, -3.97 39.13, 1.68 50.71" stroke="#1e1e1e" stroke-width="2" fill="none"></path></g><g transform="translate(329.5 57.5) rotate(0 0 24.5)"><path d="M9.1 27.37 C4.54 34.3, 4.04 44.59, 1.68 50.71 M9.1 27.37 C6.72 33.03, 4.87 38.67, 1.68 50.71" stroke="#1e1e1e" stroke-width="2" fill="none"></path></g></g><mask></mask><g stroke-linecap="round"><g transform="translate(329.5 154.5) rotate(0 0 24.5)"><path d="M-0.68 0.12 C-0.66 8.34, 0.4 40.2, 0.68 48.24 M1.17 -0.87 C1.03 7.59, 0.16 41.01, 0.08 49.37" stroke="#1e1e1e" stroke-width="2" fill="none"></path></g><g transform="translate(329.5 154.5) rotate(0 0 24.5)"><path d="M-7.87 26.2 C-5.12 35.44, -3.82 44.01, 0.08 49.37 M-7.87 26.2 C-7.03 32.16, -3.42 36.58, 0.08 49.37" stroke="#1e1e1e" stroke-width="2" fill="none"></path></g><g transform="translate(329.5 154.5) rotate(0 0 24.5)"><path d="M8.89 26.51 C5.81 35.55, 1.27 44.01, 0.08 49.37 M8.89 26.51 C5.63 32.43, 5.14 36.77, 0.08 49.37" stroke="#1e1e1e" stroke-width="2" fill="none"></path></g></g><mask></mask><g stroke-linecap="round"><g transform="translate(329.5 251.5) rotate(0 0 24.5)"><path d="M0.68 -0.76 C0.95 7.27, 1.25 40, 0.98 48.34 M-0.43 1.45 C-0.16 9.62, 0.24 41.32, 0.54 49.52" stroke="#1e1e1e" stroke-width="2" fill="none"></path></g><g transform="translate(329.5 251.5) rotate(0 0 24.5)"><path d="M-8.38 26.71 C-7.46 33.84, -5.12 36.13, 0.54 49.52 M-8.38 26.71 C-5 33.01, -3.35 41.03, 0.54 49.52" stroke="#1e1e1e" stroke-width="2" fill="none"></path></g><g transform="translate(329.5 251.5) rotate(0 0 24.5)"><path d="M8.38 26.31 C5.22 33.64, 3.48 36.02, 0.54 49.52 M8.38 26.31 C6.41 32.79, 2.72 40.93, 0.54 49.52" stroke="#1e1e1e" stroke-width="2" fill="none"></path></g></g><mask></mask><g stroke-linecap="round"><g transform="translate(329.5 348.5) rotate(0 0 24.5)"><path d="M0.98 -0.66 C0.7 7.67, -0.64 40.89, -0.98 49.23 M0.03 1.6 C0.06 9.61, 1.02 39.62, 1.21 47.22" stroke="#1e1e1e" stroke-width="2" fill="none"></path></g><g transform="translate(329.5 348.5) rotate(0 0 24.5)"><path d="M-7.83 24.45 C-5.86 30.85, -1.15 38.77, 1.21 47.22 M-7.83 24.45 C-5.11 31.88, -1.2 39.29, 1.21 47.22" stroke="#1e1e1e" stroke-width="2" fill="none"></path></g><g transform="translate(329.5 348.5) rotate(0 0 24.5)"><path d="M8.93 23.97 C4.92 30.68, 3.66 38.77, 1.21 47.22 M8.93 23.97 C6.1 31.4, 4.46 38.97, 1.21 47.22" stroke="#1e1e1e" stroke-width="2" fill="none"></path></g></g><mask></mask><g stroke-linecap="round"><g transform="translate(330 445.5) rotate(0 -0.25 24.75)"><path d="M-0.98 0.23 C-1.41 8.65, -1.83 41.85, -1.6 49.87 M0.7 -0.7 C0.54 7.41, 0.64 39.65, 0.53 47.95" stroke="#1e1e1e" stroke-width="2" fill="none"></path></g><g transform="translate(330 445.5) rotate(0 -0.25 24.75)"><path d="M-7.84 24.66 C-4.4 31.77, -0.96 43.98, 0.53 47.95 M-7.84 24.66 C-5.75 29.14, -4.14 33.46, 0.53 47.95" stroke="#1e1e1e" stroke-width="2" fill="none"></path></g><g transform="translate(330 445.5) rotate(0 -0.25 24.75)"><path d="M9.09 24.72 C6.07 31.68, 3.06 43.86, 0.53 47.95 M9.09 24.72 C7.7 29.16, 5.82 33.47, 0.53 47.95" stroke="#1e1e1e" stroke-width="2" fill="none"></path></g></g><mask></mask><g stroke-linecap="round"><g transform="translate(330 845) rotate(0 -0.25 24.25)"><path d="M-0.5 0.17 C-0.44 4.07, -0.05 15.45, -0.09 23.48 C-0.13 31.52, -0.72 44.25, -0.75 48.39 M0.24 -0.22 C0.3 3.72, -0.07 15.72, -0.31 23.91 C-0.56 32.11, -1.27 44.8, -1.22 48.93" stroke="#1e1e1e" stroke-width="2" fill="none"></path></g><g transform="translate(330 845) rotate(0 -0.25 24.25)"><path d="M-5.15 37.33 C-4.09 40.33, -4 42.14, -1.22 48.93 M-5.15 37.33 C-3.91 40.34, -2.8 43.81, -1.22 48.93" stroke="#1e1e1e" stroke-width="2" fill="none"></path></g><g transform="translate(330 845) rotate(0 -0.25 24.25)"><path d="M3.23 37.52 C2.46 40.44, 0.72 42.2, -1.22 48.93 M3.23 37.52 C2.12 40.46, 0.88 43.88, -1.22 48.93" stroke="#1e1e1e" stroke-width="2" fill="none"></path></g></g><mask></mask><g stroke-linecap="round"><g transform="translate(216.60300000000007 941.5) rotate(0 -60.05150000000003 24.5)"><path d="M0.89 -1.13 C-19.03 2.85, -100.57 15.97, -120.64 24.26 C-140.71 32.55, -119.7 44.64, -119.54 48.61 M-0.1 0.89 C-20.13 5.02, -101.88 17.53, -121.87 25.67 C-141.85 33.81, -120.46 45.89, -120.01 49.72" stroke="#1e1e1e" stroke-width="2" fill="none"></path></g><g transform="translate(216.60300000000007 941.5) rotate(0 -60.05150000000003 24.5)"><path d="M-130.54 43.46 C-129.49 44.14, -126.38 46.57, -120.01 49.72 M-130.54 43.46 C-127.46 45.17, -124.63 46.9, -120.01 49.72" stroke="#1e1e1e" stroke-width="2" fill="none"></path></g><g transform="translate(216.60300000000007 941.5) rotate(0 -60.05150000000003 24.5)"><path d="M-124.06 38.16 C-124.33 39.99, -122.58 43.52, -120.01 49.72 M-124.06 38.16 C-122.69 41.23, -121.59 44.37, -120.01 49.72" stroke="#1e1e1e" stroke-width="2" fill="none"></path></g></g><mask></mask><g stroke-linecap="round"><g transform="translate(329.5 941.5) rotate(0 0 24.5)"><path d="M-0.53 -0.24 C-0.59 8.05, 0.4 40.56, 0.56 48.61 M1.39 -1.41 C1.14 7.15, 0.16 41.56, -0.09 49.94" stroke="#1e1e1e" stroke-width="2" fill="none"></path></g><g transform="translate(329.5 941.5) rotate(0 0 24.5)"><path d="M-7.8 26.68 C-5.53 36.36, -2.9 44.84, -0.09 49.94 M-7.8 26.68 C-5.58 31.82, -4.94 36.82, -0.09 49.94" stroke="#1e1e1e" stroke-width="2" fill="none"></path></g><g transform="translate(329.5 941.5) rotate(0 0 24.5)"><path d="M8.95 27.17 C4.95 36.59, 1.32 44.88, -0.09 49.94 M8.95 27.17 C7.48 32.18, 4.43 37.08, -0.09 49.94" stroke="#1e1e1e" stroke-width="2" fill="none"></path></g></g><mask></mask><g stroke-linecap="round"><g transform="translate(497 941.145) rotate(0 91.75 24.67750000000001)"><path d="M0.56 -0.39 C31.31 3.63, 153.36 15.62, 183.93 23.9 C214.5 32.17, 183.96 45.02, 183.97 49.26 M-0.6 -1.64 C30.07 2.52, 152.53 16.24, 183.21 24.93 C213.88 33.63, 183.24 46.28, 183.46 50.53" stroke="#1e1e1e" stroke-width="2" fill="none"></path></g><g transform="translate(497 941.145) rotate(0 91.75 24.67750000000001)"><path d="M188.52 39.38 C186.8 42.69, 184.93 45.58, 183.46 50.53 M188.52 39.38 C186.7 42.56, 185.32 45.82, 183.46 50.53" stroke="#1e1e1e" stroke-width="2" fill="none"></path></g><g transform="translate(497 941.145) rotate(0 91.75 24.67750000000001)"><path d="M194.51 45.24 C191.27 47.08, 187.87 48.48, 183.46 50.53 M194.51 45.24 C190.91 46.71, 187.78 48.25, 183.46 50.53" stroke="#1e1e1e" stroke-width="2" fill="none"></path></g></g><mask></mask><g stroke-linecap="round"><g transform="translate(96.5 1038.5) rotate(0 0 24.5)"><path d="M0.43 -0.96 C0.41 7.26, 0.46 40.58, 0.47 48.91 M-0.81 1.16 C-0.99 9.6, -0.36 42.2, -0.23 50.4" stroke="#1e1e1e" stroke-width="2" fill="none"></path></g><g transform="translate(96.5 1038.5) rotate(0 0 24.5)"><path d="M-9 27.52 C-7.63 36.21, -3.14 44.22, -0.23 50.4 M-9 27.52 C-6.98 34.28, -4.83 41.08, -0.23 50.4" stroke="#1e1e1e" stroke-width="2" fill="none"></path></g><g transform="translate(96.5 1038.5) rotate(0 0 24.5)"><path d="M7.75 27.23 C3.32 36.08, 1.99 44.19, -0.23 50.4 M7.75 27.23 C4.74 34.05, 1.86 40.95, -0.23 50.4" stroke="#1e1e1e" stroke-width="2" fill="none"></path></g></g><mask></mask><g stroke-linecap="round"><g transform="translate(329.5 1038.5) rotate(0 0 24.5)"><path d="M0.47 -0.09 C0.49 8.23, 0.72 40.85, 0.52 49 M-0.74 -1.19 C-0.87 7.43, -0.57 42, -0.16 50.54" stroke="#1e1e1e" stroke-width="2" fill="none"></path></g><g transform="translate(329.5 1038.5) rotate(0 0 24.5)"><path d="M-9.11 27.74 C-6.44 36.22, -3.27 41.75, -0.16 50.54 M-9.11 27.74 C-7.59 34.13, -3.84 41.55, -0.16 50.54" stroke="#1e1e1e" stroke-width="2" fill="none"></path></g><g transform="translate(329.5 1038.5) rotate(0 0 24.5)"><path d="M7.64 27.32 C4.68 36.01, 2.23 41.68, -0.16 50.54 M7.64 27.32 C4.33 33.81, 3.26 41.35, -0.16 50.54" stroke="#1e1e1e" stroke-width="2" fill="none"></path></g></g><mask></mask><g stroke-linecap="round"><g transform="translate(629.5 1030.9070000000002) rotate(0 -52.25 28.296499999999924)"><path d="M0.52 0 C-17.1 5.35, -87.66 22.54, -105.26 31.95 C-122.86 41.35, -105 52.37, -105.06 56.44 M-0.67 -1.04 C-17.95 4.5, -85.37 23.63, -102.94 33.41 C-120.52 43.2, -105.62 53.69, -106.12 57.68" stroke="#1e1e1e" stroke-width="2" fill="none"></path></g><g transform="translate(629.5 1030.9070000000002) rotate(0 -52.25 28.296499999999924)"><path d="M-114.8 49.03 C-111.86 51.15, -109.06 54.29, -106.12 57.68 M-114.8 49.03 C-112.26 51.93, -109.96 54.11, -106.12 57.68" stroke="#1e1e1e" stroke-width="2" fill="none"></path></g><g transform="translate(629.5 1030.9070000000002) rotate(0 -52.25 28.296499999999924)"><path d="M-107.21 45.47 C-106.85 48.84, -106.63 53.18, -106.12 57.68 M-107.21 45.47 C-106.88 49.38, -106.76 52.58, -106.12 57.68" stroke="#1e1e1e" stroke-width="2" fill="none"></path></g></g><mask></mask><g stroke-linecap="round"><g transform="translate(717.6880000000001 1038.5) rotate(0 19.78099999999995 24.5)"><path d="M-0.76 -0.14 C5.66 3.91, 32.47 16.19, 39 24.35 C45.53 32.5, 38.28 44.53, 38.42 48.77 M1.04 -1.26 C7.21 2.98, 31.14 17.26, 37.76 25.8 C44.37 34.34, 40.3 46.33, 40.71 49.97" stroke="#1e1e1e" stroke-width="2" fill="none"></path></g><g transform="translate(717.6880000000001 1038.5) rotate(0 19.78099999999995 24.5)"><path d="M37.48 38.15 C38.45 41.65, 39.54 45.11, 40.71 49.97 M37.48 38.15 C38.36 41.55, 39.25 45.03, 40.71 49.97" stroke="#1e1e1e" stroke-width="2" fill="none"></path></g><g transform="translate(717.6880000000001 1038.5) rotate(0 19.78099999999995 24.5)"><path d="M45.83 38.84 C43.93 42.05, 42.16 45.28, 40.71 49.97 M45.83 38.84 C44.36 42.1, 42.91 45.38, 40.71 49.97" stroke="#1e1e1e" stroke-width="2" fill="none"></path></g></g><mask></mask><g stroke-linecap="round"><g transform="translate(525 1135.5) rotate(0 0 24.5)"><path d="M-0.56 -0.15 C-0.63 8, -1.28 40.45, -1.14 48.77 M1.34 -1.28 C1.7 7.07, 1.25 42, 0.97 50.19" stroke="#1e1e1e" stroke-width="2" fill="none"></path></g><g transform="translate(525 1135.5) rotate(0 0 24.5)"><path d="M-6.93 27 C-5.35 30.62, -3.6 38.46, 0.97 50.19 M-6.93 27 C-4.18 35.89, -1.95 43.54, 0.97 50.19" stroke="#1e1e1e" stroke-width="2" fill="none"></path></g><g transform="translate(525 1135.5) rotate(0 0 24.5)"><path d="M9.82 27.34 C7.44 30.81, 5.22 38.56, 0.97 50.19 M9.82 27.34 C6.44 36.14, 2.54 43.66, 0.97 50.19" stroke="#1e1e1e" stroke-width="2" fill="none"></path></g></g><mask></mask><g stroke-linecap="round"><g transform="translate(795.6489999999999 1135.5) rotate(0 20.425500000000056 24.5)"><path d="M-1.14 -0.23 C5.8 4.01, 34.13 17.06, 41.11 25.29 C48.09 33.53, 40.8 45.16, 40.73 49.19 M0.46 -1.4 C7.32 2.52, 33.73 14.92, 40.31 23.59 C46.88 32.26, 39.81 46.67, 39.91 50.61" stroke="#1e1e1e" stroke-width="2" fill="none"></path></g><g transform="translate(795.6489999999999 1135.5) rotate(0 20.425500000000056 24.5)"><path d="M38.25 38.47 C38.42 41.83, 39.89 44.51, 39.91 50.61 M38.25 38.47 C38.28 42.04, 39.71 45.75, 39.91 50.61" stroke="#1e1e1e" stroke-width="2" fill="none"></path></g><g transform="translate(795.6489999999999 1135.5) rotate(0 20.425500000000056 24.5)"><path d="M46.44 40.25 C44.54 43.08, 43.93 45.31, 39.91 50.61 M46.44 40.25 C43.89 43.28, 42.72 46.44, 39.91 50.61" stroke="#1e1e1e" stroke-width="2" fill="none"></path></g></g><mask></mask><g stroke-linecap="round"><g transform="translate(719.3510000000001 1135.5) rotate(0 -20.675500000000056 95.31550000000016)"><path d="M0.26 0.79 C-6.46 4.95, -40.36 -7.03, -41.47 24.69 C-42.57 56.41, -12.1 163.56, -6.38 191.13 M-1.06 0.17 C-7.85 4.56, -41.45 -5.15, -42.48 26.33 C-43.5 57.81, -13.07 161.62, -7.22 189.06" stroke="#1e1e1e" stroke-width="2" fill="none"></path></g><g transform="translate(719.3510000000001 1135.5) rotate(0 -20.675500000000056 95.31550000000016)"><path d="M-21.25 168.36 C-17.09 172.37, -15.23 176.55, -7.22 189.06 M-21.25 168.36 C-15.92 174.87, -12.72 183.43, -7.22 189.06" stroke="#1e1e1e" stroke-width="2" fill="none"></path></g><g transform="translate(719.3510000000001 1135.5) rotate(0 -20.675500000000056 95.31550000000016)"><path d="M-4.66 164.19 C-3.91 169.09, -5.44 174.13, -7.22 189.06 M-4.66 164.19 C-5.04 172.05, -7.51 182.04, -7.22 189.06" stroke="#1e1e1e" stroke-width="2" fill="none"></path></g></g><mask></mask><g stroke-linecap="round"><g transform="translate(836 1232.5) rotate(0 -16.80950000000007 46.815500000000156)"><path d="M-0.12 0.19 C-5.79 15.75, -28.03 78.65, -33.77 94.13 M-1.64 -0.75 C-7.5 14.37, -29.71 76.46, -34.79 92.27" stroke="#1e1e1e" stroke-width="2" fill="none"></path></g><g transform="translate(836 1232.5) rotate(0 -16.80950000000007 46.815500000000156)"><path d="M-35.27 67.28 C-34.63 75.08, -33.96 81.82, -34.79 92.27 M-35.27 67.28 C-35.87 74.57, -35.18 80.07, -34.79 92.27" stroke="#1e1e1e" stroke-width="2" fill="none"></path></g><g transform="translate(836 1232.5) rotate(0 -16.80950000000007 46.815500000000156)"><path d="M-19.09 72.82 C-23.7 78.82, -28.23 83.78, -34.79 92.27 M-19.09 72.82 C-23.89 78.58, -27.35 82.67, -34.79 92.27" stroke="#1e1e1e" stroke-width="2" fill="none"></path></g></g><mask></mask><g mask="url(#mask-y8NiDLqBqQ4D-ZhaQStOa)" stroke-linecap="round"><g transform="translate(798.981 1503.7690000000002) rotate(0 18.634500000000003 60.865499999999884)"><path d="M-0.15 0.5 C5.93 13.92, 29.96 60.63, 36.33 80.71 C42.71 100.79, 38.12 113.97, 38.1 120.98 M-1.68 -0.28 C4.77 13.28, 31.98 61.62, 38.56 81.98 C45.13 102.34, 38.22 115.44, 37.77 121.9" stroke="#1e1e1e" stroke-width="2" fill="none"></path></g><g transform="translate(798.981 1503.7690000000002) rotate(0 18.634500000000003 60.865499999999884)"><path d="M34.93 101.85 C36.62 106.12, 35.75 114.88, 37.77 121.9 M34.93 101.85 C35.09 106.54, 36.54 110.4, 37.77 121.9" stroke="#1e1e1e" stroke-width="2" fill="none"></path></g><g transform="translate(798.981 1503.7690000000002) rotate(0 18.634500000000003 60.865499999999884)"><path d="M48.48 104.72 C46.24 108.14, 41.43 116.07, 37.77 121.9 M48.48 104.72 C45.45 108.84, 43.68 112.02, 37.77 121.9" stroke="#1e1e1e" stroke-width="2" fill="none"></path></g></g><mask id="mask-y8NiDLqBqQ4D-ZhaQStOa"><rect x="0" y="0" fill="#fff" width="936.25" height="1726.5000000000002"></rect><rect x="821.7500000000002" y="1572.5" fill="#000" width="29" height="25" opacity="1"></rect></mask><g mask="url(#mask-i3cZzJxW2dkXomXse-9BB)" stroke-linecap="round"><g transform="translate(717.019 1503.7690000000002) rotate(0 -18.658000000000015 109.36549999999988)"><path d="M-0.93 -0.52 C-7.23 12.81, -38.16 43.77, -37.94 80.48 C-37.72 117.19, -6.13 196.73, 0.37 219.77 M0.78 1.83 C-5.6 15.25, -38.77 45.6, -38.45 81.62 C-38.13 117.65, -3.9 194.95, 2.7 217.97" stroke="#1e1e1e" stroke-width="2" fill="none"></path></g><g transform="translate(717.019 1503.7690000000002) rotate(0 -18.658000000000015 109.36549999999988)"><path d="M-13.27 198.73 C-9.46 205.77, -5.25 208.12, 2.7 217.97 M-13.27 198.73 C-6.73 205.22, -0.38 214.34, 2.7 217.97" stroke="#1e1e1e" stroke-width="2" fill="none"></path></g><g transform="translate(717.019 1503.7690000000002) rotate(0 -18.658000000000015 109.36549999999988)"><path d="M2.83 192.97 C2.04 201.54, 1.61 205.55, 2.7 217.97 M2.83 192.97 C3.14 201.68, 3.27 213.02, 2.7 217.97" stroke="#1e1e1e" stroke-width="2" fill="none"></path></g></g><mask id="mask-i3cZzJxW2dkXomXse-9BB"><rect x="0" y="0" fill="#fff" width="857.741" height="1823.5000000000002"></rect><rect x="659.7499999999998" y="1572.5" fill="#000" width="37" height="25" opacity="1"></rect></mask><g stroke-linecap="round"><g transform="translate(835.75 1673.5) rotate(0 -19.86099999999999 24.5)"><path d="M0.83 -0.75 C-5.81 7.67, -33.98 41.75, -40.81 50.04 M-0.19 1.47 C-6.4 9.63, -31.84 40.33, -38.66 48.46" stroke="#1e1e1e" stroke-width="2" fill="none"></path></g><g transform="translate(835.75 1673.5) rotate(0 -19.86099999999999 24.5)"><path d="M-30.21 24.93 C-33.44 28.41, -32.34 34.78, -38.66 48.46 M-30.21 24.93 C-31.97 32.53, -34.11 38.06, -38.66 48.46" stroke="#1e1e1e" stroke-width="2" fill="none"></path></g><g transform="translate(835.75 1673.5) rotate(0 -19.86099999999999 24.5)"><path d="M-17.06 35.87 C-23.17 37.01, -24.99 40.95, -38.66 48.46 M-17.06 35.87 C-22.75 40.11, -28.76 42.42, -38.66 48.46" stroke="#1e1e1e" stroke-width="2" fill="none"></path></g></g><mask></mask><g stroke-linecap="round"><g transform="translate(757.25 1770.5) rotate(0 0 24.5)"><path d="M-1.08 1.04 C-1.29 9.32, -0.67 41.13, -0.4 48.94 M0.55 0.53 C0.08 9.08, -1.47 42.43, -1.55 50.44" stroke="#1e1e1e" stroke-width="2" fill="none"></path></g><g transform="translate(757.25 1770.5) rotate(0 0 24.5)"><path d="M-9.2 27.16 C-4.8 35.17, -3.8 45.3, -1.55 50.44 M-9.2 27.16 C-6.51 31.23, -5.73 37.22, -1.55 50.44" stroke="#1e1e1e" stroke-width="2" fill="none"></path></g><g transform="translate(757.25 1770.5) rotate(0 0 24.5)"><path d="M7.55 27.7 C5.77 35.35, 0.58 45.29, -1.55 50.44 M7.55 27.7 C6.8 31.77, 4.14 37.66, -1.55 50.44" stroke="#1e1e1e" stroke-width="2" fill="none"></path></g></g><mask></mask><g stroke-linecap="round"><g transform="translate(757.25 1867.5) rotate(0 0 24.5)"><path d="M-0.4 -0.06 C-0.13 7.74, 0.34 39.54, 0.53 47.86 M1.6 -1.14 C1.85 7.29, 0.06 40.61, -0.14 48.8" stroke="#1e1e1e" stroke-width="2" fill="none"></path></g><g transform="translate(757.25 1867.5) rotate(0 0 24.5)"><path d="M-7.59 25.47 C-5.93 31.27, -6.16 36.53, -0.14 48.8 M-7.59 25.47 C-4.39 34.81, -2.56 42.1, -0.14 48.8" stroke="#1e1e1e" stroke-width="2" fill="none"></path></g><g transform="translate(757.25 1867.5) rotate(0 0 24.5)"><path d="M9.15 26.14 C7.29 31.74, 3.56 36.86, -0.14 48.8 M9.15 26.14 C6.08 35.12, 1.65 42.16, -0.14 48.8" stroke="#1e1e1e" stroke-width="2" fill="none"></path></g></g><mask></mask><g stroke-linecap="round"><g transform="translate(757.25 1964.5) rotate(0 0 24.5)"><path d="M0.53 -1.14 C0.72 7.19, 0.64 41.67, 0.75 49.89 M-0.65 0.88 C-0.52 8.89, -0.09 40.2, 0.19 48.24" stroke="#1e1e1e" stroke-width="2" fill="none"></path></g><g transform="translate(757.25 1964.5) rotate(0 0 24.5)"><path d="M-8.71 25.41 C-8.24 32.71, -2.48 39.51, 0.19 48.24 M-8.71 25.41 C-7.35 29.82, -4.72 36.42, 0.19 48.24" stroke="#1e1e1e" stroke-width="2" fill="none"></path></g><g transform="translate(757.25 1964.5) rotate(0 0 24.5)"><path d="M8.04 25.03 C4.04 32.51, 5.33 39.4, 0.19 48.24 M8.04 25.03 C5.48 29.62, 4.19 36.31, 0.19 48.24" stroke="#1e1e1e" stroke-width="2" fill="none"></path></g></g><mask></mask><g stroke-linecap="round"><g transform="translate(757.25 2061.5) rotate(0 0 24.5)"><path d="M0.75 0.89 C0.85 9.12, 1.26 40.08, 1.17 48.21 M-0.32 0.31 C-0.31 8.77, 0.85 41.44, 0.83 49.33" stroke="#1e1e1e" stroke-width="2" fill="none"></path></g><g transform="translate(757.25 2061.5) rotate(0 0 24.5)"><path d="M-7.99 26.48 C-3.68 36.23, -3.45 42.51, 0.83 49.33 M-7.99 26.48 C-5.24 35.05, -1.33 42.76, 0.83 49.33" stroke="#1e1e1e" stroke-width="2" fill="none"></path></g><g transform="translate(757.25 2061.5) rotate(0 0 24.5)"><path d="M8.77 26.15 C7.31 36.13, 1.77 42.52, 0.83 49.33 M8.77 26.15 C5.55 34.7, 3.5 42.52, 0.83 49.33" stroke="#1e1e1e" stroke-width="2" fill="none"></path></g></g><mask></mask><g stroke-linecap="round"><g transform="translate(757.25 2158.5) rotate(0 0 24.5)"><path d="M1.17 -0.79 C1.08 7.34, 0.57 41.55, 0.22 49.67 M0.32 1.41 C0.03 9.11, -0.81 40.02, -0.62 47.9" stroke="#1e1e1e" stroke-width="2" fill="none"></path></g><g transform="translate(757.25 2158.5) rotate(0 0 24.5)"><path d="M-8.88 24.83 C-7.03 33.47, -1.61 39.92, -0.62 47.9 M-8.88 24.83 C-6.62 29.63, -5.75 33.91, -0.62 47.9" stroke="#1e1e1e" stroke-width="2" fill="none"></path></g><g transform="translate(757.25 2158.5) rotate(0 0 24.5)"><path d="M7.88 24.92 C3.66 33.69, 3.01 40.11, -0.62 47.9 M7.88 24.92 C6.59 29.76, 3.92 34.02, -0.62 47.9" stroke="#1e1e1e" stroke-width="2" fill="none"></path></g></g><mask></mask><g transform="translate(223.5 21) rotate(0 106 12.5)"><text x="106" y="0" font-family="Virgil, Segoe UI Emoji" font-size="20px" fill="#1e1e1e" text-anchor="middle" style="white-space: pre;" direction="ltr" dominant-baseline="text-before-edge">Entrar no TripAdvisor</text></g><g transform="translate(253 118) rotate(0 76.5 12.5)"><text x="76.5" y="0" font-family="Virgil, Segoe UI Emoji" font-size="20px" fill="#1e1e1e" text-anchor="middle" style="white-space: pre;" direction="ltr" dominant-baseline="text-before-edge">Escolher Idioma</text></g><g transform="translate(254 215) rotate(0 75.5 12.5)"><text x="75.5" y="0" font-family="Virgil, Segoe UI Emoji" font-size="20px" fill="#1e1e1e" text-anchor="middle" style="white-space: pre;" direction="ltr" dominant-baseline="text-before-edge">Escolher Moeda</text></g><g transform="translate(299.5 312) rotate(0 30 12.5)"><text x="30" y="0" font-family="Virgil, Segoe UI Emoji" font-size="20px" fill="#1e1e1e" text-anchor="middle" style="white-space: pre;" direction="ltr" dominant-baseline="text-before-edge">Hotéis</text></g><g transform="translate(236.5 409) rotate(0 93 12.5)"><text x="93" y="0" font-family="Virgil, Segoe UI Emoji" font-size="20px" fill="#1e1e1e" text-anchor="middle" style="white-space: pre;" direction="ltr" dominant-baseline="text-before-edge">Barra de Pesquisa</text></g><g transform="translate(257.25 644.75) rotate(0 72.5 25)"><text x="72.5" y="0" font-family="Virgil, Segoe UI Emoji" font-size="20px" fill="#1e1e1e" text-anchor="middle" style="white-space: pre;" direction="ltr" dominant-baseline="text-before-edge">Digite o lugar </text><text x="72.5" y="25" font-family="Virgil, Segoe UI Emoji" font-size="20px" fill="#1e1e1e" text-anchor="middle" style="white-space: pre;" direction="ltr" dominant-baseline="text-before-edge">que quer ir</text></g><g transform="translate(192 905) rotate(0 137.5 12.5)"><text x="137.5" y="0" font-family="Virgil, Segoe UI Emoji" font-size="20px" fill="#1e1e1e" text-anchor="middle" style="white-space: pre;" direction="ltr" dominant-baseline="text-before-edge">Página de Hotéis Disponíveis</text></g><g transform="translate(55.5 1002) rotate(0 41 12.5)"><text x="41" y="0" font-family="Virgil, Segoe UI Emoji" font-size="20px" fill="#1e1e1e" text-anchor="middle" style="white-space: pre;" direction="ltr" dominant-baseline="text-before-edge">Check-In</text></g><g transform="translate(280 1002) rotate(0 49.5 12.5)"><text x="49.5" y="0" font-family="Virgil, Segoe UI Emoji" font-size="20px" fill="#1e1e1e" text-anchor="middle" style="white-space: pre;" direction="ltr" dominant-baseline="text-before-edge">Check-Out</text></g><g transform="translate(640.5 1002) rotate(0 40 12.5)"><text x="40" y="0" font-family="Virgil, Segoe UI Emoji" font-size="20px" fill="#1e1e1e" text-anchor="middle" style="white-space: pre;" direction="ltr" dominant-baseline="text-before-edge">Quartos</text></g><g transform="translate(25 1099) rotate(0 71.5 12.5)"><text x="71.5" y="0" font-family="Virgil, Segoe UI Emoji" font-size="20px" fill="#1e1e1e" text-anchor="middle" style="white-space: pre;" direction="ltr" dominant-baseline="text-before-edge">Check-In Date</text></g><g transform="translate(249.5 1099) rotate(0 80 12.5)"><text x="80" y="0" font-family="Virgil, Segoe UI Emoji" font-size="20px" fill="#1e1e1e" text-anchor="middle" style="white-space: pre;" direction="ltr" dominant-baseline="text-before-edge">Check-Out Date</text></g><g transform="translate(488.5 1099) rotate(0 36.5 12.5)"><text x="36.5" y="0" font-family="Virgil, Segoe UI Emoji" font-size="20px" fill="#1e1e1e" text-anchor="middle" style="white-space: pre;" direction="ltr" dominant-baseline="text-before-edge">Adultos</text></g><g transform="translate(716.25 1099) rotate(0 41 12.5)"><text x="41" y="0" font-family="Virgil, Segoe UI Emoji" font-size="20px" fill="#1e1e1e" text-anchor="middle" style="white-space: pre;" direction="ltr" dominant-baseline="text-before-edge">Crianças</text></g><g transform="translate(429.5 1196) rotate(0 95.5 12.5)"><text x="95.5" y="0" font-family="Virgil, Segoe UI Emoji" font-size="20px" fill="#1e1e1e" text-anchor="middle" style="white-space: pre;" direction="ltr" dominant-baseline="text-before-edge">Quantidade Adultos</text></g><g transform="translate(736.5 1196) rotate(0 100 12.5)"><text x="100" y="0" font-family="Virgil, Segoe UI Emoji" font-size="20px" fill="#1e1e1e" text-anchor="middle" style="white-space: pre;" direction="ltr" dominant-baseline="text-before-edge">Quantidade Crianças</text></g><g transform="translate(709.75 1388) rotate(0 47.5 25)"><text x="47.5" y="0" font-family="Virgil, Segoe UI Emoji" font-size="20px" fill="#1e1e1e" text-anchor="middle" style="white-space: pre;" direction="ltr" dominant-baseline="text-before-edge">Criança </text><text x="47.5" y="25" font-family="Virgil, Segoe UI Emoji" font-size="20px" fill="#1e1e1e" text-anchor="middle" style="white-space: pre;" direction="ltr" dominant-baseline="text-before-edge">Presente?</text></g><g transform="translate(750.25 1637) rotate(0 86 12.5)"><text x="86" y="0" font-family="Virgil, Segoe UI Emoji" font-size="20px" fill="#1e1e1e" text-anchor="middle" style="white-space: pre;" direction="ltr" dominant-baseline="text-before-edge">Idade da Criança</text></g><g transform="translate(686.25 1734) rotate(0 71 12.5)"><text x="71" y="0" font-family="Virgil, Segoe UI Emoji" font-size="20px" fill="#1e1e1e" text-anchor="middle" style="white-space: pre;" direction="ltr" dominant-baseline="text-before-edge">Click Atualizar</text></g><g transform="translate(735.75 1831) rotate(0 21.5 12.5)"><text x="21.5" y="0" font-family="Virgil, Segoe UI Emoji" font-size="20px" fill="#1e1e1e" text-anchor="middle" style="white-space: pre;" direction="ltr" dominant-baseline="text-before-edge">Wait</text></g><g transform="translate(596.25 1928) rotate(0 161 12.5)"><text x="161" y="0" font-family="Virgil, Segoe UI Emoji" font-size="20px" fill="#1e1e1e" text-anchor="middle" style="white-space: pre;" direction="ltr" dominant-baseline="text-before-edge">Mostre a Quantidade de Páginas</text></g><g transform="translate(725.75 2025) rotate(0 31.5 12.5)"><text x="31.5" y="0" font-family="Virgil, Segoe UI Emoji" font-size="20px" fill="#1e1e1e" text-anchor="middle" style="white-space: pre;" direction="ltr" dominant-baseline="text-before-edge">Scrapy</text></g><g transform="translate(634.25 2122) rotate(0 123 12.5)"><text x="123" y="0" font-family="Virgil, Segoe UI Emoji" font-size="20px" fill="#1e1e1e" text-anchor="middle" style="white-space: pre;" direction="ltr" dominant-baseline="text-before-edge">Save Data Info in .XLSX</text></g><g transform="translate(696.75 2219) rotate(0 60.5 12.5)"><text x="60.5" y="0" font-family="Virgil, Segoe UI Emoji" font-size="20px" fill="#1e1e1e" text-anchor="middle" style="white-space: pre;" direction="ltr" dominant-baseline="text-before-edge">Data Folder</text></g><g transform="translate(821.75 1572.5) rotate(0 -2.9218992032621145 -7.9187661231324)"><text x="14.5" y="0" font-family="Virgil, Segoe UI Emoji" font-size="20px" fill="#1e1e1e" text-anchor="middle" style="white-space: pre;" direction="ltr" dominant-baseline="text-before-edge">Sim</text></g><g transform="translate(659.75 1572.5) rotate(0 39.390660540240674 40.89329341512939)"><text x="18.5" y="0" font-family="Virgil, Segoe UI Emoji" font-size="20px" fill="#1e1e1e" text-anchor="middle" style="white-space: pre;" direction="ltr" dominant-baseline="text-before-edge">Não</text></g></svg>